<svg width="36" height="37" viewBox="0 0 36 37" fill="none" xmlns="http://www.w3.org/2000/svg">
<path fill-rule="evenodd" clip-rule="evenodd" d="M9.009 19.8025C9.26012 19.7688 9.51314 19.7513 9.7665 19.75C10.0771 19.7462 10.3875 19.7662 10.695 19.81C10.8861 19.832 11.0731 19.8815 11.25 19.957V22.63C11.0565 22.6765 10.815 22.7065 10.5255 22.7245C10.236 22.741 9.903 22.75 9.528 22.75C8.9025 22.75 8.409 22.6375 8.046 22.4155C7.6815 22.1905 7.5 21.79 7.5 21.2155C7.5 20.9065 7.5735 20.6545 7.7205 20.4655C7.8695 20.2762 8.05919 20.123 8.2755 20.017C8.4975 19.9075 8.742 19.837 9.009 19.8025ZM28.038 22.6C28.3725 23.044 28.671 23.479 28.9275 23.905L30.9285 23.9065C30.6825 23.479 30.3825 23.02 30.0285 22.5265C29.673 22.0315 29.298 21.544 28.9005 21.0625C28.5015 20.581 28.0995 20.1325 27.69 19.7185C27.279 19.3045 26.8905 18.958 26.5245 18.676L27.543 17.6245C27.903 17.254 28.26 16.882 28.6155 16.5085C28.971 16.138 29.313 15.769 29.643 15.403C29.973 15.037 30.279 14.7025 30.561 14.398H28.56C28.341 14.6545 28.077 14.95 27.771 15.2845C27.4665 15.619 27.1425 15.97 26.799 16.336C26.457 16.702 26.109 17.0605 25.755 17.4145L24.7815 18.3835V9.7165L23.076 10.009V23.9065H24.7815V19.3345C25.162 19.5956 25.5239 19.8827 25.8645 20.194C26.257 20.5491 26.6305 20.9246 26.9835 21.319C27.3527 21.7311 27.7045 22.1585 28.038 22.6ZM17.5005 24.1255C18.711 24.1255 19.6425 23.899 20.2965 23.449C20.952 22.999 21.279 22.3345 21.279 21.457C21.279 21.0055 21.2115 20.6245 21.0765 20.3125C20.943 20.002 20.7495 19.7365 20.499 19.5175C20.2485 19.2985 19.9455 19.1065 19.5915 18.9415C19.236 18.778 18.831 18.61 18.381 18.439C18.0375 18.316 17.7435 18.202 17.5005 18.091C17.2545 17.9815 17.0505 17.863 16.8855 17.7355C16.7322 17.6214 16.6066 17.4743 16.518 17.305C16.4385 17.146 16.398 16.9645 16.398 16.756C16.3902 16.5723 16.4366 16.3904 16.5312 16.2328C16.6259 16.0753 16.7647 15.9489 16.9305 15.8695C17.286 15.6805 17.7015 15.586 18.1785 15.586C18.6542 15.578 19.129 15.6305 19.5915 15.742C19.8881 15.8125 20.1767 15.9135 20.4525 16.0435L20.7645 14.581C20.4295 14.4674 20.0866 14.3787 19.7385 14.3155C19.506 14.272 19.2555 14.236 18.9855 14.206C18.717 14.1745 18.447 14.1595 18.1785 14.1595C17.103 14.1595 16.2525 14.4055 15.6285 14.9005C15.0045 15.394 14.6925 16.063 14.6925 16.903C14.6813 17.2747 14.7568 17.644 14.913 17.9815C15.0563 18.2687 15.2563 18.5238 15.501 18.7315C15.7646 18.9505 16.0574 19.1317 16.371 19.27C16.7192 19.4283 17.0713 19.5779 17.427 19.7185C18.1845 20.0245 18.729 20.2975 19.059 20.542C19.2169 20.6526 19.3448 20.8007 19.4312 20.973C19.5176 21.1453 19.5598 21.3363 19.554 21.529C19.554 21.931 19.386 22.2235 19.05 22.4065C18.714 22.591 18.1965 22.681 17.5005 22.681C16.791 22.681 16.2225 22.6075 15.7935 22.4635L15.7192 22.4377C15.3297 22.3024 15.0425 22.2027 14.859 22.1335L14.547 23.5945C14.8653 23.7181 15.1897 23.8252 15.519 23.9155C15.996 24.0565 16.656 24.1255 17.5005 24.1255ZM12.2265 23.8435L12.8415 23.7415L12.84 17.7985C12.84 17.263 12.78 16.7725 12.657 16.327C12.534 15.8815 12.33 15.4975 12.042 15.175C11.7555 14.8525 11.376 14.602 10.905 14.425C10.434 14.2495 9.8565 14.1595 9.1725 14.1595C8.5725 14.1595 8.016 14.206 7.503 14.296C6.9885 14.389 6.6225 14.4835 6.402 14.581L6.603 15.988C6.90962 15.8767 7.22601 15.7943 7.548 15.742C7.9695 15.6625 8.463 15.622 9.0255 15.622C9.465 15.622 9.822 15.6865 10.098 15.8155C10.3549 15.9287 10.5792 16.1046 10.7505 16.327C10.9111 16.5449 11.0235 16.7944 11.0805 17.059C11.1405 17.332 11.1705 17.6095 11.1705 17.89V18.3655C10.9422 18.3165 10.7132 18.271 10.4835 18.229C10.1355 18.1655 9.78272 18.1318 9.429 18.1285C8.91098 18.1265 8.39434 18.1818 7.8885 18.2935C7.43453 18.389 7.00026 18.5615 6.6045 18.8035C6.237 19.036 5.946 19.342 5.7315 19.7185C5.517 20.098 5.4105 20.548 5.4105 21.073C5.4105 21.6205 5.5035 22.09 5.6865 22.48C5.85756 22.855 6.12263 23.1795 6.456 23.422C6.81047 23.6702 7.20991 23.847 7.632 23.9425C8.11868 24.0564 8.6172 24.1117 9.117 24.1075C9.4965 24.1075 9.879 24.0925 10.263 24.0625C10.6485 24.031 11.0055 23.998 11.3355 23.962C11.667 23.926 11.964 23.8855 12.2265 23.8435ZM18 0.25C27.9405 0.25 36 8.284 36 18.1915C36.0035 21.2443 35.2225 24.2468 33.732 26.911L36 36.25L26.967 33.7495C24.3255 35.266 21.2655 36.136 18 36.136C8.0595 36.136 0 28.102 0 18.1915C0 8.284 8.0595 0.25 18 0.25ZM17.9989 33.6775C26.5198 33.6775 33.4275 26.7698 33.4275 18.2489C33.4275 9.72792 26.5198 2.82031 17.9989 2.82031C9.47792 2.82031 2.57031 9.72792 2.57031 18.2489C2.57031 26.7698 9.47792 33.6775 17.9989 33.6775Z" fill="#016DB2"/>
</svg>
