<svg width="48" height="48" viewBox="0 0 48 48" fill="none" xmlns="http://www.w3.org/2000/svg">
<g clip-path="url(#clip0_15920_228090)">
<rect width="48" height="48" rx="24" fill="#016DB2"/>
<path d="M31.2641 25.5162C32.256 24.7487 32.256 23.2512 31.2641 22.4837C28.2666 20.1643 24.9194 18.3362 21.3478 17.0677L20.6954 16.836C19.4471 16.3926 18.1286 17.2372 17.9596 18.5257C17.4874 22.126 17.4874 25.8739 17.9596 29.4742C18.1286 30.7627 19.4471 31.6073 20.6954 31.1639L21.3478 30.9322C24.9194 29.6637 28.2666 27.8356 31.2641 25.5162Z" fill="white"/>
<path d="M12.2319 9.72345C12.5124 10.0047 12.67 10.3856 12.67 10.7828C12.67 11.18 12.5124 11.561 12.2319 11.8422C10.1815 13.8855 8.70685 16.4338 7.95692 19.2297C7.87133 19.5487 7.68408 19.8311 7.42355 20.0341C7.16302 20.2371 6.84342 20.3497 6.51317 20.3547L6.11942 20.2985C5.92838 20.2483 5.74911 20.161 5.59191 20.0414C5.43471 19.9219 5.30267 19.7724 5.20337 19.6017C5.10407 19.431 5.03947 19.2423 5.01326 19.0466C4.98706 18.8508 4.99977 18.6518 5.05067 18.461C5.93506 15.1517 7.68205 12.1365 10.1132 9.72345C10.2511 9.58228 10.4159 9.47011 10.5978 9.39353C10.7798 9.31694 10.9752 9.27749 11.1725 9.27749C11.3699 9.27749 11.5653 9.31694 11.7473 9.39353C11.9292 9.47011 12.094 9.58228 12.2319 9.72345V9.72345ZM7.95692 27.7797C7.90681 27.5887 7.81946 27.4094 7.6999 27.2522C7.58033 27.095 7.43089 26.963 7.26016 26.8637C7.08944 26.7644 6.90078 26.6997 6.70502 26.6735C6.50926 26.6473 6.31025 26.6601 6.11942 26.711C5.73629 26.8165 5.4098 27.068 5.20999 27.4116C5.01019 27.7551 4.95299 28.1632 5.05067 28.5484C5.94521 31.8589 7.69053 34.8777 10.1132 37.3047C10.3932 37.5804 10.7702 37.7353 11.1632 37.7359C11.5615 37.7343 11.944 37.5799 12.2319 37.3047C12.5136 37.0203 12.6716 36.6362 12.6716 36.2359C12.6716 35.8357 12.5136 35.4516 12.2319 35.1672C10.1808 33.1244 8.70602 30.5759 7.95692 27.7797V27.7797ZM28.1694 39.4422C25.3688 40.1926 22.42 40.1926 19.6194 39.4422C19.234 39.3403 18.8239 39.3956 18.4793 39.596C18.1347 39.7964 17.8839 40.1256 17.7819 40.511C17.68 40.8963 17.7353 41.3064 17.9357 41.651C18.1362 41.9956 18.4653 42.2465 18.8507 42.3485C20.5033 42.7819 22.2046 43.0024 23.9132 43.0047C25.6094 43.0025 27.2983 42.7819 28.9382 42.3485C29.3236 42.2465 29.6527 41.9956 29.8531 41.651C30.0535 41.3064 30.1089 40.8963 30.0069 40.511C29.905 40.1256 29.6541 39.7964 29.3095 39.596C28.9649 39.3956 28.5548 39.3403 28.1694 39.4422V39.4422ZM41.6694 26.711C41.4786 26.6601 41.2796 26.6473 41.0838 26.6735C40.8881 26.6997 40.6994 26.7644 40.5287 26.8637C40.3579 26.963 40.2085 27.095 40.0889 27.2522C39.9694 27.4094 39.882 27.5887 39.8319 27.7797C39.0861 30.5773 37.6109 33.1266 35.5569 35.1672C35.3528 35.3804 35.2153 35.6485 35.1611 35.9386C35.1069 36.2287 35.1384 36.5284 35.2518 36.8009C35.3651 37.0734 35.5555 37.3069 35.7995 37.473C36.0435 37.6391 36.3306 37.7304 36.6257 37.7359C36.8221 37.7363 37.0165 37.6966 37.1971 37.6192C37.3776 37.5418 37.5405 37.4284 37.6757 37.286C40.1068 34.8729 41.8538 31.8577 42.7382 28.5484C42.8359 28.1632 42.7787 27.7551 42.5788 27.4116C42.379 27.068 42.0525 26.8165 41.6694 26.711V26.711ZM39.8319 19.2297C39.9175 19.5487 40.1048 19.8311 40.3653 20.0341C40.6258 20.2371 40.9454 20.3497 41.2757 20.3547L41.6694 20.2985C41.8605 20.2483 42.0397 20.161 42.1969 20.0414C42.3541 19.9219 42.4862 19.7724 42.5855 19.6017C42.6848 19.431 42.7494 19.2423 42.7756 19.0466C42.8018 18.8508 42.7891 18.6518 42.7382 18.461C41.848 15.1541 40.1018 12.1404 37.6757 9.72345C37.5377 9.58228 37.3729 9.47011 37.191 9.39353C37.0091 9.31694 36.8137 9.27749 36.6163 9.27749C36.4189 9.27749 36.2235 9.31694 36.0416 9.39353C35.8597 9.47011 35.6949 9.58228 35.5569 9.72345C35.2764 10.0047 35.1189 10.3856 35.1189 10.7828C35.1189 11.18 35.2764 11.561 35.5569 11.8422C37.608 13.885 39.0828 16.4335 39.8319 19.2297V19.2297ZM19.6194 7.5672C22.42 6.81685 25.3688 6.81685 28.1694 7.5672C28.2974 7.60427 28.4299 7.6232 28.5632 7.62345C28.9359 7.63454 29.2994 7.50641 29.5828 7.26403C29.8661 7.02166 30.0491 6.68243 30.0959 6.31249C30.1427 5.94255 30.0501 5.56843 29.8361 5.26309C29.622 4.95775 29.3019 4.74308 28.9382 4.66095C25.6334 3.77968 22.1554 3.77968 18.8507 4.66095C18.4653 4.76289 18.1362 5.01376 17.9357 5.35836C17.7353 5.70295 17.68 6.11306 17.7819 6.49845C17.8839 6.88384 18.1347 7.21296 18.4793 7.41339C18.8239 7.61382 19.234 7.66914 19.6194 7.5672Z" fill="#F5BB5C"/>
</g>
<defs>
<clipPath id="clip0_15920_228090">
<rect width="48" height="48" rx="24" fill="white"/>
</clipPath>
</defs>
</svg>
