<svg width="37" height="36" viewBox="0 0 37 36" fill="none" xmlns="http://www.w3.org/2000/svg">
<path d="M30.3373 20.2422V4.49219C30.3373 4.09436 30.1792 3.71283 29.8979 3.43153C29.6166 3.15022 29.2351 2.99219 28.8373 2.99219H7.83728C7.43946 2.99219 7.05792 3.15022 6.77662 3.43153C6.49532 3.71283 6.33728 4.09436 6.33728 4.49219V31.4922C6.33728 31.89 6.49532 32.2715 6.77662 32.5528C7.05792 32.8342 7.43946 32.9922 7.83728 32.9922M13.0873 8.99219H23.5873M13.0873 14.9922H23.5873M13.0873 20.9922H17.5873" stroke="#016DB2" stroke-width="2.57143" stroke-linecap="round" stroke-linejoin="round"/>
<path d="M10.984 32.7109V27.1005H13.4057C13.8221 27.1005 14.1865 27.1827 14.4988 27.3471C14.8111 27.5115 15.054 27.7425 15.2274 28.0402C15.4009 28.3379 15.4877 28.6858 15.4877 29.0839C15.4877 29.4857 15.3982 29.8336 15.2192 30.1276C15.0421 30.4217 14.7928 30.6481 14.4714 30.807C14.1518 30.9659 13.7783 31.0454 13.3509 31.0454H11.9045V29.8619H13.0441C13.2231 29.8619 13.3756 29.8309 13.5016 29.7688C13.6294 29.7048 13.7271 29.6144 13.7947 29.4976C13.8641 29.3807 13.8988 29.2428 13.8988 29.0839C13.8988 28.9232 13.8641 28.7862 13.7947 28.673C13.7271 28.5579 13.6294 28.4703 13.5016 28.41C13.3756 28.3479 13.2231 28.3169 13.0441 28.3169H12.5072V32.7109H10.984ZM16.0465 32.7109V27.1005H17.5697V31.4837H19.8379V32.7109H16.0465ZM21.911 32.7109H20.2673L22.1192 27.1005H24.2012L26.0531 32.7109H24.4094L23.1821 28.6456H23.1383L21.911 32.7109ZM21.6042 30.4975H24.6943V31.6371H21.6042V30.4975ZM31.4477 27.1005V32.7109H30.1766L28.1494 29.7633H28.1166V32.7109H26.5934V27.1005H27.8864L29.8808 30.0372H29.9246V27.1005H31.4477Z" fill="#016DB2"/>
</svg>
