<svg xmlns="http://www.w3.org/2000/svg" viewBox="0 0 420.34 390.34"><g id="Layer_2" data-name="Layer 2"><g id="Layer_1-2" data-name="Layer 1"><path d="M253.85,306.77a102.56,102.56,0,0,0-13-48,105.29,105.29,0,0,0-50.78-45.44,60.64,60.64,0,0,0,10.51-10.82,63.58,63.58,0,0,0-49.21-102.16H149A63.78,63.78,0,0,0,92.64,137.1a63.41,63.41,0,0,0,13.06,72,36.67,36.67,0,0,0,4,3.61l.71.58a104,104,0,0,0-63.76,91,47.16,47.16,0,0,0,.21,9.78,36,36,0,0,0,14.84,24.15,36.51,36.51,0,0,0,19.56,6.53H219.22a35.89,35.89,0,0,0,34.63-38Zm-88.14,15.89H83.09a14.83,14.83,0,0,1-8.47-2.42,13.49,13.49,0,0,1-5.85-9.79,81.68,81.68,0,0,1,72-82.45,90.27,90.27,0,0,1,9.4-.5,79.46,79.46,0,0,1,21.7,2.94,81.41,81.41,0,0,1,48.82,37.69,80.57,80.57,0,0,1,11,38.66v.14a14.26,14.26,0,0,1-3,10.71,13.89,13.89,0,0,1-10.82,5H165.71ZM113.1,145.57a41.49,41.49,0,0,1,30.18-22.51,41.48,41.48,0,0,1,24.17,3.18,41.41,41.41,0,0,1-17.15,79c-.62,0-1.24,0-1.87-.05a41.39,41.39,0,0,1-35.33-59.66Z" fill="#016DB2"/><path d="M55.56,0H195.5a11.8,11.8,0,0,1,8.67,4,11.25,11.25,0,0,1-8.63,18.58H56.32a33.59,33.59,0,0,0-13,2.4A33,33,0,0,0,22.61,56.34c0,42.72,0,235.43,0,278.15a33.07,33.07,0,0,0,27.58,32.78,45.78,45.78,0,0,0,8,.48c42.1,0,214.2,0,256.3,0A33.11,33.11,0,0,0,347.72,335c0-15.19,0-140.38,0-155.57a11.26,11.26,0,0,1,18.34-8.82,11.81,11.81,0,0,1,4.26,8.61V335.77a57.87,57.87,0,0,1-5.8,23.43,55.42,55.42,0,0,1-48,31l1.44.13H55.7A56.35,56.35,0,0,1,20.87,378,55.51,55.51,0,0,1,.35,340.06c-.1-1.23-.23-2.46-.35-3.68V54.49A55.94,55.94,0,0,1,55.56,0Z" fill="#016DB2"/><path d="M287.84,4.71h71.64A11.77,11.77,0,0,1,370.34,15.5V87a11.43,11.43,0,0,1-5.51,8.91,11.27,11.27,0,0,1-17-10q0-21.37,0-42.74l-88,88a20.35,20.35,0,0,1-4,3.49A11.26,11.26,0,0,1,240.53,119a26.94,26.94,0,0,1,3.78-4.2Q288.08,71,331.84,27.25H289.11a11.7,11.7,0,0,1-10.65-6.72,11.18,11.18,0,0,1,1.36-11.45A11.57,11.57,0,0,1,287.84,4.71Z" fill="#016DB2"/></g></g></svg>