<svg
      width="31"
      height="25"
      viewBox="0 0 31 25"
      fill="none"
      xmlns="http://www.w3.org/2000/svg"
    >
      <path
        d="M1.86669 4.93634L7.37721 2.66923V20.5037L1.6153 23.2013V5.33921C1.6153 5.33911 1.6153 5.33902 1.6153 5.33893C1.61538 5.2453 1.64286 5.15676 1.69017 5.08491C1.73727 5.01337 1.80023 4.96368 1.86667 4.93635L1.86669 4.93634ZM11.6153 20.4031V2.55L19.0439 5.09694V22.95L11.6153 20.4031ZM28.7925 20.5637L23.282 22.8308V4.99628L29.0439 2.29874V20.1611C29.0439 20.2547 29.0164 20.3433 28.9691 20.4152C28.922 20.4866 28.8591 20.5363 28.7928 20.5635L28.7925 20.5637Z"
        stroke="#016DB2"
        strokeWidth="2.57143"
      />
    </svg>