<svg width="37" height="36" viewBox="0 0 37 36" fill="none" xmlns="http://www.w3.org/2000/svg">
<g clip-path="url(#clip0_402_2787)">
<path d="M33.6594 12.0039V20.7189C32.7444 20.1939 31.7394 19.8339 30.6594 19.6389V12.0039H6.65942V27.0039H20.2944C20.2194 27.4989 20.1594 27.9939 20.1594 28.5039C20.1594 29.0139 20.2194 29.5089 20.2944 30.0039H6.65942C5.86377 30.0039 5.10071 29.6878 4.5381 29.1252C3.97549 28.5626 3.65942 27.7996 3.65942 27.0039V9.00391C3.65942 7.33891 4.99442 6.00391 6.65942 6.00391H15.6594L18.6594 9.00391H30.6594C31.4551 9.00391 32.2181 9.31998 32.7807 9.88259C33.3434 10.4452 33.6594 11.2083 33.6594 12.0039Z" fill="#016DB2"/>
<path d="M36.1708 23.6093C36.0947 23.4261 35.9491 23.2806 35.766 23.2045C35.6758 23.1661 35.5791 23.1457 35.4811 23.1445H31.7329C31.5341 23.1445 31.3434 23.2235 31.2028 23.3641C31.0623 23.5047 30.9833 23.6954 30.9833 23.8942C30.9833 24.093 31.0623 24.2837 31.2028 24.4242C31.3434 24.5648 31.5341 24.6438 31.7329 24.6438H33.6745L29.484 28.8343L27.0177 26.3605C26.948 26.2902 26.8651 26.2344 26.7737 26.1964C26.6824 26.1583 26.5844 26.1387 26.4855 26.1387C26.3865 26.1387 26.2885 26.1583 26.1972 26.1964C26.1058 26.2344 26.0229 26.2902 25.9532 26.3605L21.4554 30.8583C21.3851 30.928 21.3294 31.0109 21.2913 31.1023C21.2532 31.1936 21.2336 31.2916 21.2336 31.3905C21.2336 31.4895 21.2532 31.5875 21.2913 31.6788C21.3294 31.7702 21.3851 31.8531 21.4554 31.9228C21.5251 31.9931 21.608 32.0488 21.6993 32.0869C21.7907 32.1249 21.8887 32.1445 21.9876 32.1445C22.0866 32.1445 22.1846 32.1249 22.2759 32.0869C22.3673 32.0488 22.4502 31.9931 22.5199 31.9228L26.4855 27.9497L28.9518 30.4235C29.0215 30.4938 29.1044 30.5495 29.1957 30.5876C29.2871 30.6257 29.385 30.6453 29.484 30.6453C29.583 30.6453 29.6809 30.6257 29.7723 30.5876C29.8636 30.5495 29.9466 30.4938 30.0162 30.4235L34.7315 25.7008V27.6424C34.7315 27.8412 34.8104 28.0318 34.951 28.1724C35.0916 28.313 35.2823 28.392 35.4811 28.392C35.6799 28.392 35.8706 28.313 36.0112 28.1724C36.1518 28.0318 36.2307 27.8412 36.2307 27.6424V23.8942C36.2296 23.7962 36.2092 23.6994 36.1708 23.6093Z" fill="#016DB2"/>
</g>
<defs>
<clipPath id="clip0_402_2787">
<rect width="36" height="36" fill="white" transform="translate(0.66333)"/>
</clipPath>
</defs>
</svg>
