<svg xmlns="http://www.w3.org/2000/svg" width="39" height="37" viewBox="0 0 39 37" fill="none">
  <path d="M1.33325 36H37.3332" stroke="#016DB2" stroke-width="2" stroke-linecap="round"/>
  <path d="M12.9803 22.2353H3.95093C3.67479 22.2353 3.45093 22.4591 3.45093 22.7353V35.5C3.45093 35.7761 3.67479 36 3.95093 36H12.9803M12.9803 22.2353V16.3823C12.9803 16.1062 13.2042 15.8823 13.4803 15.8823H23.0686C23.3447 15.8823 23.5686 16.1062 23.5686 16.3823V27.5294M12.9803 22.2353V36M23.5686 27.5294H33.6568C33.9329 27.5294 34.1568 27.7532 34.1568 28.0294V35.5C34.1568 35.7761 33.9329 36 33.6568 36H23.5686M23.5686 27.5294V36M12.9803 36H23.5686" stroke="#016DB2" stroke-width="2"/>
  <path d="M11.162 10.7678L11.1623 10.7678C11.3394 10.784 11.5073 10.8539 11.6453 10.968C11.7832 11.0819 11.8851 11.2348 11.939 11.4072C11.9936 11.58 11.9978 11.7656 11.951 11.9408C11.9042 12.1161 11.8084 12.274 11.6746 12.3942C11.6745 12.3943 11.6744 12.3944 11.6744 12.3944L9.6259 14.249L10.24 17.0124C10.2798 17.1891 10.2685 17.3739 10.2074 17.5441C10.1463 17.7144 10.0379 17.863 9.89488 17.9709C9.7518 18.0789 9.58058 18.1411 9.4026 18.1491C9.22461 18.1571 9.04869 18.1104 8.89691 18.0155L8.89654 18.0153L6.58126 16.5585L4.27108 18.0152L4.27059 18.0155C4.11881 18.1104 3.94289 18.1571 3.7649 18.1491C3.58691 18.1411 3.4157 18.0789 3.27262 17.9709C3.12961 17.863 3.0212 17.7144 2.96012 17.5441C2.89906 17.374 2.88774 17.1892 2.92743 17.0126C2.92745 17.0125 2.92746 17.0125 2.92747 17.0124L3.54206 14.2519L1.49334 12.3946C1.49321 12.3945 1.49308 12.3944 1.49295 12.3943C1.35925 12.2745 1.26323 12.1171 1.21611 11.9422C1.16894 11.7672 1.17262 11.5817 1.22674 11.4088C1.28087 11.2358 1.38328 11.0824 1.52196 10.9684C1.66067 10.8543 1.8294 10.7847 2.00713 10.7692C2.00718 10.7692 2.00722 10.7692 2.00727 10.7692L4.70215 10.5271L5.75544 7.92086C5.75546 7.9208 5.75548 7.92075 5.75551 7.92069L5.75553 7.92063L5.8946 7.97683C5.95141 7.83561 6.04722 7.71498 6.16997 7.63013C6.29273 7.54528 6.43694 7.5 6.58445 7.5C6.73196 7.5 6.87617 7.54528 6.99893 7.63013C7.12169 7.71498 7.2175 7.83561 7.2743 7.97683L11.162 10.7678ZM11.162 10.7678L8.46991 10.527L7.41347 7.92086C7.41344 7.92081 7.41342 7.92075 7.4134 7.9207L11.162 10.7678ZM4.88474 11.5931L4.88448 11.5931L2.43596 11.8128L4.30047 13.4992L4.88474 11.5931ZM4.88474 11.5931C5.04904 11.5781 5.20577 11.5168 5.33807 11.4166C5.47032 11.3164 5.57303 11.1811 5.63579 11.0259M4.88474 11.5931L5.63579 11.0259M5.63579 11.0259L6.58442 8.68162L7.53265 11.0259C7.53265 11.0259 7.53265 11.0259 7.53266 11.0259C7.59541 11.1812 7.69812 11.3164 7.83037 11.4166C7.96267 11.5168 8.11939 11.5781 8.2837 11.5931L8.28387 11.5931L10.728 11.8137L8.86844 13.4973C8.74525 13.6084 8.65419 13.7518 8.60438 13.9115C8.55461 14.0712 8.54775 14.2418 8.58448 14.4051L8.58444 14.405L8.73086 14.3724L8.58452 14.4053L5.63579 11.0259ZM9.1412 16.9045L7.05261 15.5893M9.1412 16.9045L6.11734 15.5893M9.1412 16.9045L9.18712 17.1107L6.97249 15.7162M9.1412 16.9045L9.31995 17.0171L6.19735 15.7162M7.05261 15.5893C6.91212 15.5006 6.75031 15.4534 6.58492 15.4534C6.41958 15.4534 6.2578 15.5006 6.11734 15.5893M7.05261 15.5893L6.97249 15.7162M7.05261 15.5893L7.05242 15.5892L6.97249 15.7162M6.11734 15.5893L6.19735 15.7162M6.11734 15.5893L6.19735 15.7162M6.19735 15.7162L6.11724 15.5893L4.03145 16.9046L4.58439 14.4073C4.58441 14.4072 4.58443 14.4071 4.58445 14.407C4.62115 14.2437 4.61429 14.0731 4.56452 13.9135C4.51473 13.7538 4.42372 13.6105 4.3006 13.4993L6.19735 15.7162ZM6.19735 15.7162C6.31412 15.6424 6.4482 15.6034 6.58492 15.6034C6.72164 15.6034 6.85572 15.6424 6.97249 15.7162M6.19735 15.7162L3.98581 17.1107L6.19735 15.7162Z" fill="#016DB2" stroke="#016DB2" stroke-width="0.3"/>
  <path d="M35.2598 17.7796L35.2601 17.7796C35.4162 17.794 35.5642 17.8556 35.6858 17.956C35.8072 18.0563 35.8968 18.1908 35.9442 18.3423C35.9923 18.4945 35.996 18.6577 35.9549 18.812C35.9137 18.9661 35.8294 19.1051 35.7117 19.2109C35.7116 19.211 35.7115 19.2111 35.7114 19.2112L33.9649 20.7924L34.4885 23.1488C34.4885 23.1489 34.4886 23.1489 34.4886 23.149L34.4886 23.1492L34.3422 23.1817C34.3709 23.3094 34.3627 23.443 34.3186 23.5658C34.2746 23.6887 34.1965 23.7953 34.0943 23.8724C33.9922 23.9496 33.8703 23.9937 33.7441 23.9994C33.6178 24.005 33.4928 23.972 33.3845 23.9043L35.2598 17.7796ZM35.2598 17.7796L32.9653 17.5744L32.0647 15.3527C32.0647 15.3527 32.0647 15.3526 32.0647 15.3526C32.0052 15.2049 31.9047 15.0779 31.7748 14.9881C31.6449 14.8983 31.4916 14.85 31.3343 14.85C31.177 14.85 31.0237 14.8983 30.8937 14.9881C30.7638 15.0779 30.6632 15.205 30.6038 15.3527L29.7059 17.5745L27.4091 17.7808L27.4221 17.9303L27.4087 17.7809L27.409 17.7808C27.2523 17.7945 27.1036 17.8559 26.9814 17.9564C26.8592 18.0568 26.7691 18.1918 26.7215 18.344C26.6739 18.4961 26.6707 18.6592 26.7122 18.8132C26.7536 18.967 26.8381 19.1055 26.9558 19.211C26.9559 19.2111 26.9561 19.2112 26.9562 19.2114L28.7029 20.7948L28.1788 23.1488C28.1788 23.1489 28.1788 23.149 28.1788 23.149M35.2598 17.7796L28.1788 23.149M28.1788 23.149L28.1787 23.1491L28.3252 23.1817L28.1788 23.149ZM27.8291 18.7136L29.8791 18.5297L29.8793 18.5297C30.0242 18.5164 30.1623 18.4624 30.2789 18.3741C30.3954 18.2859 30.4858 18.1668 30.541 18.0303C30.541 18.0303 30.541 18.0303 30.541 18.0302L31.3343 16.07L32.1272 18.0302C32.1272 18.0302 32.1272 18.0303 32.1272 18.0303C32.1824 18.1668 32.2728 18.2859 32.3893 18.3741C32.5058 18.4624 32.644 18.5164 32.7888 18.5297L32.789 18.5297L34.8353 18.7144L33.2776 20.1246C33.1691 20.2225 33.089 20.3487 33.0452 20.4892C33.0014 20.6297 32.9954 20.7797 33.0277 20.9234C33.0277 20.9234 33.0277 20.9235 33.0277 20.9236L33.4937 23.0155L31.747 21.9156L27.8291 18.7136ZM27.8291 18.7136L29.3909 20.1263L29.3911 20.1264L29.2904 20.2376L27.8291 18.7136ZM29.178 23.0155L30.9224 21.9156L29.178 23.0155ZM29.178 23.0155L29.6408 20.9252L29.178 23.0155Z" fill="#016DB2" stroke="#016DB2" stroke-width="0.3"/>
  <path d="M14.8332 13.5V12H17.8332V9.67499C17.2207 9.53749 16.6737 9.27799 16.1922 8.89649C15.7107 8.51499 15.3577 8.03699 15.1332 7.46249C14.1958 7.34999 13.4113 6.94074 12.7798 6.23474C12.1483 5.52874 11.8328 4.7005 11.8333 3.75V3C11.8333 2.5875 11.9803 2.23425 12.2743 1.94025C12.5683 1.64625 12.9213 1.4995 13.3333 1.5H14.8332V0H22.3332V1.5H23.8332C24.2457 1.5 24.599 1.647 24.893 1.941C25.187 2.235 25.3337 2.588 25.3332 3V3.75C25.3332 4.7 25.0175 5.52824 24.386 6.23474C23.7545 6.94124 22.9702 7.35049 22.0332 7.46249C21.8082 8.03749 21.455 8.51574 20.9735 8.89724C20.492 9.27874 19.9452 9.53799 19.3332 9.67499V12H22.3332V13.5H14.8332ZM14.8332 5.84999V3H13.3333V3.75C13.3333 4.225 13.4708 4.65325 13.7458 5.03475C14.0208 5.41624 14.3832 5.68799 14.8332 5.84999ZM18.5832 8.24999C19.2082 8.24999 19.7395 8.03124 20.177 7.59374C20.6145 7.15624 20.8332 6.62499 20.8332 5.99999V1.5H16.3332V5.99999C16.3332 6.62499 16.552 7.15624 16.9895 7.59374C17.427 8.03124 17.9582 8.24999 18.5832 8.24999ZM22.3332 5.84999C22.7832 5.68749 23.1457 5.41549 23.4207 5.034C23.6957 4.6525 23.8332 4.2245 23.8332 3.75V3H22.3332V5.84999Z" fill="#016DB2"/>
</svg>