<svg width="24" height="32" viewBox="0 0 24 32" fill="none" xmlns="http://www.w3.org/2000/svg">
<path d="M23.645 12.0293C23.6461 10.1106 23.1648 8.2225 22.2454 6.53849C21.326 4.85447 19.998 3.42864 18.3834 2.39208C16.7689 1.35552 14.9196 0.741505 13.0057 0.606496C11.0918 0.471488 9.17468 0.819816 7.4306 1.61945C5.68652 2.41909 4.17147 3.64437 3.02474 5.18264C1.87802 6.7209 1.13643 8.52278 0.868162 10.4226C0.599895 12.3224 0.813562 14.2592 1.48952 16.0548C2.16547 17.8504 3.28201 19.4473 4.73649 20.6986V29.9427C4.73652 30.1971 4.8016 30.4474 4.92556 30.6696C5.04952 30.8919 5.22824 31.0788 5.44474 31.2125C5.66125 31.3462 5.90835 31.4224 6.16257 31.4338C6.4168 31.4451 6.66971 31.3913 6.89729 31.2775L12.2004 28.6265L17.5047 31.2775C17.7323 31.391 17.985 31.4446 18.2391 31.4331C18.4931 31.4216 18.74 31.3454 18.9564 31.2117C19.1727 31.078 19.3513 30.8912 19.4752 30.6691C19.5991 30.447 19.6642 30.197 19.6643 29.9427V20.6986C20.9132 19.6257 21.9155 18.2955 22.6026 16.7992C23.2897 15.3029 23.6453 13.6758 23.645 12.0293ZM3.7413 12.0293C3.7413 10.3562 4.23742 8.72077 5.16691 7.32968C6.09641 5.93858 7.41754 4.85436 8.96323 4.21411C10.5089 3.57387 12.2098 3.40635 13.8507 3.73274C15.4916 4.05914 16.9988 4.86479 18.1819 6.04781C19.3649 7.23084 20.1705 8.7381 20.4969 10.379C20.8233 12.0199 20.6558 13.7208 20.0156 15.2664C19.3753 16.8121 18.2911 18.1333 16.9 19.0628C15.5089 19.9923 13.8734 20.4884 12.2004 20.4884C9.95761 20.4861 7.80734 19.5941 6.22146 18.0082C4.63557 16.4223 3.7436 14.2721 3.7413 12.0293ZM16.6787 27.5281L12.8672 25.6223C12.6598 25.5185 12.4311 25.4645 12.1991 25.4645C11.9672 25.4645 11.7385 25.5185 11.5311 25.6223L7.72205 27.5268V22.5609C9.13829 23.1631 10.6614 23.4734 12.2004 23.4734C13.7393 23.4734 15.2625 23.1631 16.6787 22.5609V27.5281Z" fill="#016DB2"/>
<path d="M11.4508 7.1822L7.96102 10.2418C7.81273 10.3718 7.71172 10.5374 7.67079 10.7176C7.62985 10.8979 7.65083 11.0848 7.73105 11.2546L7.76709 11.322C7.85595 11.4742 7.99103 11.6021 8.15745 11.6913C8.32387 11.7806 8.51516 11.8278 8.71026 11.8279H10.0805V15.0799C10.0805 15.3263 10.1922 15.5626 10.3909 15.7369C10.5896 15.9111 10.8592 16.009 11.1402 16.009H13.2597L13.3392 16.0067C13.6058 15.9891 13.855 15.8838 14.0368 15.7119C14.2186 15.5401 14.3196 15.3143 14.3195 15.0799L14.3189 11.8279H15.6897C15.8993 11.8278 16.1041 11.7733 16.2784 11.6712C16.4526 11.5691 16.5884 11.424 16.6686 11.2543C16.7488 11.0845 16.7698 10.8977 16.7289 10.7175C16.688 10.5373 16.5871 10.3718 16.439 10.2418L12.9492 7.1822C12.7505 7.00801 12.481 6.91016 12.2 6.91016C11.919 6.91016 11.6495 7.00801 11.4508 7.1822Z" fill="#016DB2"/>
</svg>
