<svg width="23" height="32" viewBox="0 0 23 32" fill="none" xmlns="http://www.w3.org/2000/svg">
<path d="M10.3808 1.7779V8.36719C10.3808 9.60328 10.8718 10.7888 11.7459 11.6628C12.6199 12.5369 13.8054 13.0279 15.0415 13.0279H21.6308V28.6172C21.6308 29.1713 21.4107 29.7027 21.0189 30.0945C20.627 30.4864 20.0956 30.7065 19.5415 30.7065H3.7915C3.23739 30.7065 2.70597 30.4864 2.31416 30.0945C1.92234 29.7027 1.70222 29.1713 1.70222 28.6172V3.86719C1.70222 3.31307 1.92234 2.78166 2.31416 2.38984C2.70597 1.99802 3.23739 1.7779 3.7915 1.7779H10.3808ZM19.25 8.20647H15.2022V4.15868L19.25 8.20647Z" stroke="#016DB2" stroke-width="2.57143"/>
</svg>
