<svg version="1.0" xmlns="http://www.w3.org/2000/svg"  width="80.000000pt" height="80.000000pt" viewBox="0 0 80.000000 80.000000"  preserveAspectRatio="xMidYMid meet">  <g transform="translate(0.000000,80.000000) scale(0.100000,-0.100000)" fill="#000000" stroke="none"> <path d="M320 790 c-114 -24 -223 -108 -273 -210 -120 -245 23 -524 291 -571 164 -29 342 62 415 211 127 259 -40 552 -325 574 -35 3 -83 1 -108 -4z m153 -200 l52 -49 -62 -63 -63 -63 -62 62 -63 63 50 50 c63 64 82 64 148 0z m-148 -130 l60 -60 -63 -62 -62 -63 -50 50 c-32 31 -50 58 -50 73 0 21 82 122 99 122 4 0 33 -27 66 -60z m267 13 c62 -61 62 -80 -2 -146 l-49 -52 -63 62 -63 63 60 60 c33 33 62 60 64 60 3 0 27 -21 53 -47z m-127 -153 l59 -60 -49 -50 c-63 -64 -82 -64 -148 0 l-52 49 60 61 c33 33 62 60 65 60 3 0 32 -27 65 -60z"/> </g> </svg>